<svg xmlns="http://www.w3.org/2000/svg" xml:space="preserve" style="fill-rule:evenodd;clip-rule:evenodd;stroke-linejoin:round;stroke-miterlimit:2" viewBox="0 0 1000 1000"><path d="M926 403.097v259.806C926 734.706 864.968 793 789.794 793H247.206C172.032 793 111 734.706 111 662.903V403.097C111 331.294 172.032 273 247.206 273h542.588C864.968 273 926 331.294 926 403.097Z" style="fill:#eb2d36" transform="matrix(1.22699 0 0 1.28462 -136.196 -121.2)"/><path d="m12 26 13-8-13-8v16Z" style="fill:#fff;fill-rule:nonzero" transform="translate(-89.846 337.482) scale(12.5565)"/><path d="M12 26h4V10h-4v16Zm9 0h4V10h-4v16Z" style="fill:#fff;fill-rule:nonzero" transform="translate(123.374 337.482) scale(12.5565)"/><path d="M23.94 18.78c.03-.25.05-.51.05-.78s-.02-.52-.05-.78l1.68-1.32c.15-.12.19-.33.09-.51l-1.6-2.76a.39.39 0 0 0-.48-.17l-1.99.8c-.41-.32-.86-.58-1.35-.78l-.3-2.12a.383.383 0 0 0-.39-.33h-3.2c-.2 0-.36.14-.39.33l-.3 2.12c-.48.2-.93.47-1.35.78l-1.99-.8c-.18-.07-.39 0-.48.17l-1.6 2.76c-.1.17-.05.39.09.51l1.68 1.32c-.03.25-.05.52-.05.78s.02.52.05.78l-1.68 1.32c-.15.12-.19.33-.09.51l1.6 2.76c.09.17.31.24.48.17l1.99-.8c.41.32.86.58 1.35.78l.3 2.12c.02.19.19.33.39.33h3.2c.2 0 .36-.14.39-.33l.3-2.12c.48-.2.93-.47 1.35-.78l1.99.8c.18.07.39 0 .48-.17l1.6-2.76c.09-.17.05-.39-.09-.51l-1.68-1.32ZM18 20.79c-1.54 0-2.8-1.25-2.8-2.8 0-1.54 1.25-2.8 2.8-2.8 1.54 0 2.8 1.25 2.8 2.8 0 1.54-1.25 2.8-2.8 2.8Z" style="fill:#fff;fill-rule:nonzero" transform="translate(614.434 336.635) scale(12.6037)"/><path d="M8 21h4l5 5V10l-5 5H8v6Zm11-7v8c1.48-.68 2.5-2.23 2.5-4 0-1.74-1.02-3.26-2.5-4Zm0-2.71c2.89.86 5 3.54 5 6.71s-2.11 5.85-5 6.71v2.06c4.01-.91 7-4.49 7-8.77 0-4.28-2.99-7.86-7-8.77v2.06Z" style="fill:#fff;fill-rule:nonzero" transform="translate(395.641 357.327) scale(11.4541)"/><path d="M102 74h138v48H102z" style="fill:#777" transform="matrix(6.27536 0 0 .36594 -538.087 118.696)"/><path d="M102 74h138v48H102z" style="fill:#eb2d36" transform="matrix(5.44245 0 0 .36594 -523.13 118.696)"/><circle cx="146" cy="127" r="17" style="fill:#eb2d36" transform="translate(456.207 -129.757) scale(2.2387)"/></svg>
